<svg xmlns="http://www.w3.org/2000/svg" width="11.565" height="11.866" viewBox="0 0 11.565 11.866">
  <path id="Icon_awesome-arrow-right" data-name="Icon awesome-arrow-right" d="M5.045.775,5.633.187a.633.633,0,0,1,.9,0l5.148,5.146a.633.633,0,0,1,0,.9L6.531,11.379a.633.633,0,0,1-.9,0l-.588-.588a.636.636,0,0,1,.011-.908l3.191-3.04H.636A.634.634,0,0,1,0,6.206V5.359a.634.634,0,0,1,.636-.636H8.247L5.056,1.683A.632.632,0,0,1,5.045.775Z" transform="translate(0 11.866) rotate(-90)" fill="#fff"/>
</svg>
