<svg xmlns="http://www.w3.org/2000/svg" width="17.478" height="17.035" viewBox="0 0 17.478 17.035">
  <g id="Group_72" data-name="Group 72" transform="translate(-1262.012 -756.835)">
    <g id="Icon_awesome-arrow-right" data-name="Icon awesome-arrow-right" transform="translate(1262.012 756.835)">
      <path id="Icon_awesome-arrow-right-2" data-name="Icon awesome-arrow-right" d="M7.431,3.788,8.3,2.922a.932.932,0,0,1,1.322,0L17.2,10.5a.932.932,0,0,1,0,1.322L9.62,19.407a.932.932,0,0,1-1.322,0l-.866-.866A.937.937,0,0,1,7.447,17.2l4.7-4.478H.936A.934.934,0,0,1,0,11.789V10.541A.934.934,0,0,1,.936,9.6H12.147l-4.7-4.478A.931.931,0,0,1,7.431,3.788Z" transform="translate(17.478 19.682) rotate(180)" fill="#fff"/>
    </g>
  </g>
</svg>
