<svg xmlns="http://www.w3.org/2000/svg" width="18.029" height="19.7" viewBox="0 0 18.029 19.7">
  <g id="Icon_feather-share-2" data-name="Icon feather-share-2" transform="translate(-3 -1.5)">
    <path id="Path_8" data-name="Path 8" d="M27.51,5.5A2.5,2.5,0,1,1,25,3,2.5,2.5,0,0,1,27.51,5.5Z" transform="translate(-7.98)" fill="none" stroke="#aaa" stroke-linecap="round" stroke-linejoin="round" stroke-width="3"/>
    <path id="Path_9" data-name="Path 9" d="M9.51,16A2.5,2.5,0,1,1,7,13.5,2.5,2.5,0,0,1,9.51,16Z" transform="translate(0 -4.655)" fill="none" stroke="#aaa" stroke-linecap="round" stroke-linejoin="round" stroke-width="3"/>
    <path id="Path_10" data-name="Path 10" d="M27.51,26.5A2.5,2.5,0,1,1,25,24,2.5,2.5,0,0,1,27.51,26.5Z" transform="translate(-7.98 -9.31)" fill="none" stroke="#aaa" stroke-linecap="round" stroke-linejoin="round" stroke-width="3"/>
    <path id="Path_11" data-name="Path 11" d="M12.885,20.265l5.7,3.323" transform="translate(-3.717 -7.654)" fill="none" stroke="#aaa" stroke-linecap="round" stroke-linejoin="round" stroke-width="3"/>
    <path id="Path_12" data-name="Path 12" d="M18.58,9.765l-5.695,3.323" transform="translate(-3.717 -2.999)" fill="none" stroke="#aaa" stroke-linecap="round" stroke-linejoin="round" stroke-width="3"/>
  </g>
</svg>
