<svg xmlns="http://www.w3.org/2000/svg" width="40.848" height="40.848" viewBox="0 0 40.848 40.848">
  <path id="dribbble" d="M8.224,20.139a12.5,12.5,0,0,1,6.9-8.726,80.43,80.43,0,0,1,4.623,7.2A46.449,46.449,0,0,1,8.224,20.139Zm20.461-6.765a12.417,12.417,0,0,0-11.179-2.79,67.068,67.068,0,0,1,4.65,7.294A14.134,14.134,0,0,0,28.685,13.374ZM12.774,32.521a12.438,12.438,0,0,0,12.519,1.641,51.442,51.442,0,0,0-2.662-9.446C17.607,26.431,14.078,29.859,12.774,32.521Zm9.009-9.866c-.31-.711-.656-1.413-1.012-2.115a45.628,45.628,0,0,1-12.8,1.769c0,.128-.009.255-.009.383a12.438,12.438,0,0,0,3.2,8.334A19.328,19.328,0,0,1,21.783,22.656Zm3.182,1.486a53.282,53.282,0,0,1,2.416,8.881,12.474,12.474,0,0,0,5.343-8.352,18.181,18.181,0,0,0-7.759-.529Zm-1.851-4.413c.438.894.757,1.623,1.094,2.444a29.041,29.041,0,0,1,8.68.4,12.342,12.342,0,0,0-2.817-7.759,16.683,16.683,0,0,1-6.957,4.915Zm17.734-13.1V38.722A4.378,4.378,0,0,1,36.472,43.1H4.377A4.378,4.378,0,0,1,0,38.722V6.627A4.378,4.378,0,0,1,4.377,2.25h32.1A4.378,4.378,0,0,1,40.848,6.627ZM35.013,22.674A14.589,14.589,0,1,0,20.424,37.263,14.608,14.608,0,0,0,35.013,22.674Z" transform="translate(0 -2.25)" fill="#606060"/>
</svg>
