<svg xmlns="http://www.w3.org/2000/svg" width="40.848" height="40.848" viewBox="0 0 40.848 40.848">
  <path id="facebook" d="M36.472,2.25H4.377A4.377,4.377,0,0,0,0,6.627V38.722A4.377,4.377,0,0,0,4.377,43.1H16.891V29.211H11.147V22.674h5.744V17.692c0-5.667,3.374-8.8,8.541-8.8a34.8,34.8,0,0,1,5.062.441V14.9H27.643c-2.809,0-3.685,1.743-3.685,3.531v4.244h6.271l-1,6.537H23.957V43.1H36.472a4.377,4.377,0,0,0,4.377-4.377V6.627A4.377,4.377,0,0,0,36.472,2.25Z" transform="translate(0 -2.25)" fill="#606060"/>
</svg>
