<svg xmlns="http://www.w3.org/2000/svg" width="40.848" height="40.848" viewBox="0 0 40.848 40.848">
  <path id="linkedin" d="M37.931,2.25H2.909A2.93,2.93,0,0,0,0,5.2V40.153A2.93,2.93,0,0,0,2.909,43.1H37.931a2.938,2.938,0,0,0,2.918-2.945V5.2A2.938,2.938,0,0,0,37.931,2.25ZM12.346,37.263H6.291V17.769h6.063V37.263ZM9.319,15.106a3.51,3.51,0,1,1,3.51-3.51,3.512,3.512,0,0,1-3.51,3.51ZM35.04,37.263H28.986V27.78c0-2.261-.046-5.17-3.146-5.17-3.155,0-3.638,2.462-3.638,5.006v9.647H16.148V17.769h5.808v2.662h.082a6.377,6.377,0,0,1,5.735-3.146c6.127,0,7.267,4.039,7.267,9.291Z" transform="translate(0 -2.25)" fill="#606060"/>
</svg>
