<svg xmlns="http://www.w3.org/2000/svg" width="40.848" height="40.848" viewBox="0 0 40.848 40.848">
  <path id="pinterest" d="M40.848,6.627V38.722A4.378,4.378,0,0,1,36.472,43.1H14.078a23.363,23.363,0,0,0,2.5-5.407c.274-1.049,1.4-5.325,1.4-5.325.729,1.4,2.863,2.571,5.133,2.571,6.756,0,11.616-6.209,11.616-13.923,0-7.395-6.036-12.929-13.8-12.929-9.665,0-14.789,6.483-14.789,13.549,0,3.282,1.751,7.367,4.541,8.671.429.2.647.109.748-.3.073-.31.456-1.833.62-2.535a.66.66,0,0,0-.155-.638,8.728,8.728,0,0,1-1.669-5.106,9.692,9.692,0,0,1,10.112-9.72c5.5,0,9.355,3.747,9.355,9.109,0,6.054-3.055,10.248-7.039,10.248a3.256,3.256,0,0,1-3.319-4.048c.629-2.662,1.851-5.535,1.851-7.458,0-4.832-6.884-4.167-6.884,2.279a8.181,8.181,0,0,0,.666,3.328c-2.863,12.109-3.292,12.264-2.7,17.561l.2.073H4.377A4.378,4.378,0,0,1,0,38.722V6.627A4.378,4.378,0,0,1,4.377,2.25h32.1A4.378,4.378,0,0,1,40.848,6.627Z" transform="translate(0 -2.25)" fill="#606060"/>
</svg>
