<svg xmlns="http://www.w3.org/2000/svg" width="12.852" height="12.852" viewBox="0 0 12.852 12.852">
  <g id="settings" transform="translate(0.75 0.75)">
    <path id="Path_3" data-name="Path 3" d="M16.6,15.048A1.548,1.548,0,1,1,15.048,13.5,1.548,1.548,0,0,1,16.6,15.048Z" transform="translate(-9.372 -9.372)" fill="none" stroke="#878787" stroke-linecap="round" stroke-linejoin="round" stroke-width="1.5"/>
    <path id="Path_4" data-name="Path 4" d="M10.995,8.724a.851.851,0,0,0,.17.939l.031.031a1.033,1.033,0,1,1-1.46,1.46L9.7,11.124a.858.858,0,0,0-1.455.609v.088a1.032,1.032,0,1,1-2.064,0v-.046a.893.893,0,0,0-1.5-.609l-.031.031A1.033,1.033,0,1,1,3.2,9.735L3.229,9.7A.858.858,0,0,0,2.62,8.249H2.532a1.032,1.032,0,0,1,0-2.064h.046a.893.893,0,0,0,.609-1.5l-.031-.031A1.033,1.033,0,1,1,4.617,3.2l.031.031a.851.851,0,0,0,.939.17h.041a.851.851,0,0,0,.516-.779V2.532a1.032,1.032,0,1,1,2.064,0v.046a.858.858,0,0,0,1.455.609l.031-.031a1.033,1.033,0,1,1,1.46,1.46l-.031.031a.851.851,0,0,0-.17.939v.041a.851.851,0,0,0,.779.516h.088a1.032,1.032,0,0,1,0,2.064h-.046a.851.851,0,0,0-.779.516Z" transform="translate(-1.5 -1.5)" fill="none" stroke="#878787" stroke-linecap="round" stroke-linejoin="round" stroke-width="1.5"/>
  </g>
</svg>
