<svg xmlns="http://www.w3.org/2000/svg" width="40.848" height="40.848" viewBox="0 0 40.848 40.848">
  <path id="twitter" d="M36.472,2.25H4.377A4.378,4.378,0,0,0,0,6.627V38.722A4.378,4.378,0,0,0,4.377,43.1h32.1a4.378,4.378,0,0,0,4.377-4.377V6.627A4.378,4.378,0,0,0,36.472,2.25ZM32.013,16.729c.018.255.018.52.018.775,0,7.905-6.018,17.014-17.014,17.014a16.936,16.936,0,0,1-9.182-2.681,12.6,12.6,0,0,0,1.441.073A11.99,11.99,0,0,0,14.7,29.357a5.988,5.988,0,0,1-5.589-4.149,6.445,6.445,0,0,0,2.7-.109,5.98,5.98,0,0,1-4.787-5.872v-.073a5.976,5.976,0,0,0,2.7.757,5.967,5.967,0,0,1-2.662-4.978,5.905,5.905,0,0,1,.811-3.018A16.98,16.98,0,0,0,20.2,18.17a5.993,5.993,0,0,1,10.2-5.462,11.718,11.718,0,0,0,3.793-1.441,5.964,5.964,0,0,1-2.626,3.292,11.9,11.9,0,0,0,3.447-.93A12.587,12.587,0,0,1,32.013,16.729Z" transform="translate(0 -2.25)" fill="#606060"/>
</svg>
